<svg xmlns="http://www.w3.org/2000/svg" viewBox="0 0 53.03 58.87">
    <defs>
        <style>.cls-1{fill:transparent;}.cls-2{fill:#ccc;}.cls-3{fill:#4d4d4d;}.cls-4{fill:#fff;}.cls-5{fill:#136a4a;}.cls-6{fill:#136a4a;}.cls-7{fill:#aaa;}.cls-8{fill:#e0e0e0;}</style>
    </defs>
    <title>Bag</title>
    <g id="Layer_2" data-name="Layer 2">
    <g id="Layer_1-2" data-name="Layer 1">
        <path class="cls-1" d="M44.14,48.11A36,36,0,0,1,28.41,57.3c-6.39,1.89-14,2.58-18.53-.83s-6-10.91-6.73-17.64S2.55,26.12,5.23,22s8-6.4,13.47-10.18,11.26-9,16.91-9S46.82,8,49.91,13.94a28.76,28.76,0,0,1,2.56,18.72A30.59,30.59,0,0,1,44.14,48.11Z"/>
        <path class="cls-2" d="M.5,50.75a.27.27,0,0,1-.19-.08.3.3,0,0,1-.06-.2L4.1,13.36a.27.27,0,0,1,.25-.23h5.84a.25.25,0,0,1,.25.25V17a.88.88,0,0,0,1.76,0V13.38a.25.25,0,0,1,.25-.25H26.51a.25.25,0,0,1,.25.25V17a.88.88,0,1,0,1.76,0V13.38a.25.25,0,0,1,.25-.25h5.84a.25.25,0,0,1,.25.23l1.17,12a.26.26,0,0,1-.06.19.27.27,0,0,1-.19.08H22.34L19.68,50.53a.25.25,0,0,1-.25.22Z"/>
        <path class="cls-3" d="M34.61,13.38l1.17,12H22.12L19.43,50.5H.5L4.35,13.38h5.84V17a1.13,1.13,0,1,0,2.26,0V13.38H26.51V17a1.13,1.13,0,1,0,2.26,0V13.38h5.84m0-.5H28.77a.5.5,0,0,0-.5.5V17A.63.63,0,1,1,27,17V13.38a.5.5,0,0,0-.5-.5H12.45a.5.5,0,0,0-.5.5V17a.63.63,0,0,1-1.26,0V13.38a.5.5,0,0,0-.5-.5H4.35a.49.49,0,0,0-.49.45L0,50.45a.48.48,0,0,0,.13.38A.48.48,0,0,0,.5,51H19.43a.5.5,0,0,0,.5-.45l2.64-24.66H35.78a.51.51,0,0,0,.37-.16.52.52,0,0,0,.13-.39l-1.17-12a.51.51,0,0,0-.5-.45Z"/>
        <path class="cls-4" d="M19.42,50.75a.24.24,0,0,1-.24-.28l2.68-25.11a.25.25,0,0,1,.25-.22h21a.27.27,0,0,1,.25.22l2.68,25.11a.31.31,0,0,1-.07.2.23.23,0,0,1-.18.08Z"/>
        <path class="cls-3" d="M43.15,25.39,45.83,50.5H19.42l2.69-25.11h21m0-.5h-21a.5.5,0,0,0-.5.45L18.93,50.45a.47.47,0,0,0,.12.38.5.5,0,0,0,.37.17H45.83a.5.5,0,0,0,.37-.17.47.47,0,0,0,.12-.38L43.64,25.34a.49.49,0,0,0-.49-.45Z"/>
        <path class="cls-5" d="M27.66,18.14A1.12,1.12,0,0,1,26.54,17V9.54a7,7,0,1,0-14.08,0V17a1.12,1.12,0,0,1-2.24,0V9.54A9.3,9.3,0,0,1,19.51.25a9.29,9.29,0,0,1,9.27,9.29V17A1.12,1.12,0,0,1,27.66,18.14Z"/>
        <path class="cls-3" d="M19.52.5a9.06,9.06,0,0,1,9,9V17a.88.88,0,0,1-1.75,0V9.54a7.29,7.29,0,1,0-14.58,0V17a.87.87,0,1,1-1.74,0V9.54a9,9,0,0,1,9-9h0m0-.5h0A9.55,9.55,0,0,0,10,9.54V17a1.37,1.37,0,0,0,2.74,0V9.54a6.79,6.79,0,1,1,13.58,0V17A1.38,1.38,0,0,0,29,17V9.54A9.54,9.54,0,0,0,19.52,0Z"/>
        <path class="cls-6" d="M32.64,40.85a6,6,0,0,1-6-6V30a1.12,1.12,0,0,1,2.24,0v4.88a3.75,3.75,0,1,0,7.49,0V30a1.13,1.13,0,0,1,1.13-1.12h0a1.1,1.1,0,0,1,.8.33,1.08,1.08,0,0,1,.34.79v4.88A6,6,0,0,1,32.64,40.85Z"/>
        <path class="cls-3" d="M37.52,29.1a.88.88,0,0,1,.61.25.91.91,0,0,1,.26.62v4.88a5.75,5.75,0,1,1-11.5,0V30a.87.87,0,0,1,1.74,0v4.88a4,4,0,1,0,8,0V30a.88.88,0,0,1,.88-.87h0m0-.5h0A1.38,1.38,0,0,0,36.12,30v4.88a3.5,3.5,0,1,1-7,0V30a1.37,1.37,0,0,0-2.74,0v4.88a6.25,6.25,0,1,0,12.5,0V30a1.36,1.36,0,0,0-.41-1,1.35,1.35,0,0,0-1-.4Z"/>
        <polygon class="cls-7" points="4.35 13.38 0.5 50.5 2.57 50.5 6.43 13.38 4.35 13.38"/>
        <polygon class="cls-8" points="22.11 25.39 19.42 50.5 21.5 50.5 24.18 25.39 22.11 25.39"/>
    </g>
    </g>
</svg>