<?xml version="1.0" encoding="iso-8859-1"?>
<!-- Generator: Adobe Illustrator 19.1.0, SVG Export Plug-In . SVG Version: 6.00 Build 0)  -->
<svg version="1.1" id="Capa_1" xmlns="http://www.w3.org/2000/svg" xmlns:xlink="http://www.w3.org/1999/xlink" x="0px" y="0px"
	 fill="#5BA616" viewBox="0 0 289.739 289.739" style="enable-background:new 0 0 289.739 289.739;" xml:space="preserve">
<g>
	<g>
		<path d="M206.439,15.392c-23.541,0-45.875,9.658-61.569,27.767c-15.694-17.505-38.028-27.767-61.57-27.767
			c-45.875,0-83.3,37.425-83.3,83.3c0,60.966,135.211,169.618,141.247,174.447c1.207,0.604,2.414,1.207,3.622,1.207
			c1.207,0,3.018-0.604,3.622-1.207c6.036-4.829,141.247-117.103,141.247-174.447C289.739,52.213,252.314,15.392,206.439,15.392z
			 M144.869,260.463c-9.658-8.451-37.425-31.388-65.191-59.155C35.614,156.64,12.072,121.026,12.072,98.692
			c0-39.235,31.992-71.227,71.227-71.227c22.334,0,43.461,10.262,56.74,28.37c1.207,1.811,3.018,2.414,4.829,2.414
			s3.622-0.604,4.829-2.414c13.883-18.109,34.406-28.37,56.74-28.37c39.235,0,71.227,31.992,71.227,71.227
			C277.666,139.739,185.312,226.056,144.869,260.463z"/>
		<path d="M220.926,146.982h-34.406l-16.901-31.388c-1.207-2.414-3.622-3.622-6.036-3.018c-2.414,0.604-4.225,2.414-4.829,4.829
			l-7.847,47.686l-26.559-82.696c-0.604-2.414-3.018-4.225-6.036-4.225l0,0c-2.414,0-4.829,1.811-6.036,4.225l-21.127,65.795H68.209
			c-3.622,0-6.036,2.414-6.036,6.036c0,3.622,2.414,6.036,6.036,6.036h27.163c2.414,0,4.829-1.811,6.036-4.225l16.298-52.515
			l28.37,88.129c0.604,2.414,3.018,4.225,6.036,4.225c0,0,0,0,0.604,0c3.018,0,4.829-2.414,5.433-4.829l9.054-54.93l10.262,19.316
			c1.207,1.811,3.018,3.018,5.433,3.018h37.425c3.622,0,6.036-2.414,6.036-6.036C226.358,148.792,224.547,146.982,220.926,146.982z"
			/>
	</g>
</g>
<g>
</g>
<g>
</g>
<g>
</g>
<g>
</g>
<g>
</g>
<g>
</g>
<g>
</g>
<g>
</g>
<g>
</g>
<g>
</g>
<g>
</g>
<g>
</g>
<g>
</g>
<g>
</g>
<g>
</g>
</svg>
