<?xml version="1.0" ?><svg data-name="Layer 1" id="Layer_1" viewBox="0 0 272 272"  xmlns="http://www.w3.org/2000/svg"><defs><style>.cls-1{fill:#5BA616;}.cls-2{fill:#5BA616;}.cls-3{fill:white;}</style></defs><title/><path class="cls-1" d="M264,74A128.06,128.06,0,0,1,8,74Z"/><path class="cls-2" d="M256,74A120,120,0,0,1,16,74Z"/><path class="cls-3" d="M117.23,74l-66,24A18.31,18.31,0,0,1,26.73,83.16c-.36-3-.6-6.07-.71-9.16Z"/><path class="cls-3" d="M132.11,76.4,104,153.57a18.31,18.31,0,0,1-26.94,9.29,110.82,110.82,0,0,1-31.61-30.41,18.35,18.35,0,0,1,8.78-27.72Z"/><path class="cls-3" d="M138.75,79.6,166,154.5a18.35,18.35,0,0,1-14.74,24.44A110.5,110.5,0,0,1,136,180q-4.6,0-9.1-.37a18.32,18.32,0,0,1-15.64-24.54Z"/><path class="cls-3" d="M146,78l72.15,26.25a18.32,18.32,0,0,1,8.93,27.5,110.82,110.82,0,0,1-26.8,27.53,18.32,18.32,0,0,1-27.85-8.69Z"/><path class="cls-3" d="M246,74c-.1,2.73-.29,5.43-.59,8.1a18.37,18.37,0,0,1-24.52,15.32L156.49,74Z"/><path class="cls-2" d="M153.51,74a15.91,15.91,0,0,1-2.78,5.71,16.1,16.1,0,0,1-3,3,15.9,15.9,0,0,1-6.71,3,15.45,15.45,0,0,1-3,.28c-.52,0-1,0-1.55-.07a16,16,0,0,1-7-2.37,16.23,16.23,0,0,1-4.69-4.5A15.83,15.83,0,0,1,122.49,74Z"/></svg>