<?xml version='1.0' encoding='iso-8859-1'?>
<svg version="1.1" fill="#546747" xmlns="http://www.w3.org/2000/svg" viewBox="0 0 44 44" xmlns:xlink="http://www.w3.org/1999/xlink" enable-background="new 0 0 44 44">
  <g>
    <g>
      <g>
        <path fill-rule="evenodd" d="M41,12c0-0.553-0.448-1-1-1H4c-0.552,0-1,0.447-1,1L0,43     c0,0.552,0.448,1,1,1h42c0.552,0,1-0.448,1-1L41,12z M2,42l3-29h34l3,29H2z"/>
      </g>
    </g>
    <g>
      <g>
        <path d="m23,0h-2c-5.523,0-10,4.477-10,10v1h2v-1c0-4.418 3.581-8 8-8h2c4.419,0 7,3.582 7,8v1h2v-1c0-5.523-3.477-10-9-10z"/>
      </g>
    </g>
  </g>
</svg>
